<svg width="118" height="133" viewBox="0 0 118 133" fill="none" xmlns="http://www.w3.org/2000/svg">
<path d="M118 131.751C118 132.441 117.44 133 116.749 133L116.532 133C115.842 133 115.282 132.441 115.282 131.751L115.282 131.535C115.282 130.845 115.842 130.286 116.532 130.286L116.749 130.286C117.44 130.286 118 130.845 118 131.535L118 131.751Z" fill="url(#paint0_linear)"/>
<path d="M74.8541 131.751C74.8541 132.441 74.2942 133 73.6036 133L73.3867 133C72.696 133 72.1362 132.441 72.1362 131.751L72.1362 131.535C72.1362 130.845 72.696 130.286 73.3867 130.286L73.6036 130.286C74.2942 130.286 74.8541 130.845 74.8541 131.535L74.8541 131.751Z" fill="url(#paint1_linear)"/>
<path d="M30.4579 133C31.1485 133 31.7084 132.441 31.7084 131.751L31.7084 131.535C31.7084 130.845 31.1485 130.286 30.4579 130.286L30.2409 130.286C29.5503 130.286 28.9905 130.845 28.9905 131.535L28.9905 131.751C28.9905 132.441 29.5503 133 30.2409 133L30.4579 133Z" fill="url(#paint2_linear)"/>
<path d="M118 44.8942C118 45.5839 117.44 46.143 116.75 46.143L116.533 46.143C115.842 46.143 115.282 45.5839 115.282 44.8942L115.282 44.6775C115.282 43.9878 115.842 43.4287 116.533 43.4287L116.75 43.4287C117.44 43.4287 118 43.9878 118 44.6775L118 44.8942Z" fill="url(#paint3_linear)"/>
<path d="M73.6038 46.143C74.2944 46.143 74.8543 45.5839 74.8543 44.8942L74.8543 44.6775C74.8543 43.9878 74.2944 43.4287 73.6038 43.4287L73.3869 43.4287C72.6963 43.4287 72.1364 43.9878 72.1364 44.6775L72.1364 44.8942C72.1364 45.5839 72.6963 46.143 73.3869 46.143L73.6038 46.143Z" fill="url(#paint4_linear)"/>
<path d="M31.7086 44.8942C31.7086 45.5839 31.1487 46.143 30.4581 46.143L30.2412 46.143C29.5505 46.143 28.9907 45.5839 28.9907 44.8942L28.9907 44.6775C28.9907 43.9878 29.5505 43.4287 30.2412 43.4287L30.4581 43.4287C31.1487 43.4287 31.7086 43.9878 31.7086 44.6775L31.7086 44.8942Z" fill="url(#paint5_linear)"/>
<path d="M116.75 104.047C117.44 104.047 118 103.488 118 102.799L118 102.582C118 101.892 117.44 101.333 116.75 101.333L116.533 101.333C115.842 101.333 115.282 101.892 115.282 102.582L115.282 102.799C115.282 103.488 115.842 104.047 116.533 104.047L116.75 104.047Z" fill="url(#paint6_linear)"/>
<path d="M74.8543 102.799C74.8543 103.488 74.2944 104.047 73.6038 104.047L73.3869 104.047C72.6962 104.047 72.1364 103.488 72.1364 102.799L72.1364 102.582C72.1364 101.892 72.6962 101.333 73.3869 101.333L73.6038 101.333C74.2944 101.333 74.8543 101.892 74.8543 102.582L74.8543 102.799Z" fill="url(#paint7_linear)"/>
<path d="M30.4581 104.047C31.1487 104.047 31.7086 103.488 31.7086 102.799L31.7086 102.582C31.7086 101.892 31.1487 101.333 30.4581 101.333L30.2412 101.333C29.5505 101.333 28.9907 101.892 28.9907 102.582L28.9907 102.799C28.9907 103.488 29.5505 104.047 30.2412 104.047L30.4581 104.047Z" fill="url(#paint8_linear)"/>
<path d="M118 15.942C118 16.6317 117.44 17.1908 116.75 17.1908L116.533 17.1908C115.842 17.1908 115.282 16.6317 115.282 15.942L115.282 15.7253C115.282 15.0356 115.842 14.4765 116.533 14.4765L116.75 14.4765C117.44 14.4765 118 15.0356 118 15.7253L118 15.942Z" fill="url(#paint9_linear)"/>
<path d="M73.6038 17.1908C74.2944 17.1908 74.8543 16.6317 74.8543 15.942L74.8543 15.7253C74.8543 15.0356 74.2944 14.4765 73.6038 14.4765L73.3869 14.4765C72.6963 14.4765 72.1364 15.0356 72.1364 15.7253L72.1364 15.942C72.1364 16.6317 72.6963 17.1908 73.3869 17.1908L73.6038 17.1908Z" fill="url(#paint10_linear)"/>
<path d="M31.7086 15.942C31.7086 16.6317 31.1487 17.1908 30.4581 17.1908L30.2412 17.1908C29.5505 17.1908 28.9907 16.6317 28.9907 15.942L28.9907 15.7253C28.9907 15.0356 29.5505 14.4765 30.2412 14.4765L30.4581 14.4765C31.1487 14.4765 31.7086 15.0356 31.7086 15.7253L31.7086 15.942Z" fill="url(#paint11_linear)"/>
<path d="M116.75 75.0952C117.44 75.0952 118 74.5361 118 73.8464L118 73.6297C118 72.94 117.44 72.3809 116.75 72.3809L116.533 72.3809C115.842 72.3809 115.282 72.94 115.282 73.6297L115.282 73.8464C115.282 74.5361 115.842 75.0952 116.533 75.0952L116.75 75.0952Z" fill="url(#paint12_linear)"/>
<path d="M74.8543 73.8464C74.8543 74.5361 74.2944 75.0952 73.6038 75.0952L73.3869 75.0952C72.6963 75.0952 72.1364 74.5361 72.1364 73.8464L72.1364 73.6297C72.1364 72.94 72.6963 72.3809 73.3869 72.3809L73.6038 72.3809C74.2944 72.3809 74.8543 72.94 74.8543 73.6297L74.8543 73.8464Z" fill="url(#paint13_linear)"/>
<path d="M30.4581 75.0952C31.1487 75.0952 31.7086 74.5361 31.7086 73.8464L31.7086 73.6297C31.7086 72.94 31.1487 72.3809 30.4581 72.3809L30.2412 72.3809C29.5505 72.3809 28.9907 72.94 28.9907 73.6297L28.9907 73.8464C28.9907 74.5361 29.5505 75.0952 30.2412 75.0952L30.4581 75.0952Z" fill="url(#paint14_linear)"/>
<path d="M116.75 118.524C117.44 118.524 118 117.965 118 117.275L118 117.058C118 116.369 117.44 115.81 116.75 115.81L116.533 115.81C115.842 115.81 115.282 116.369 115.282 117.058L115.282 117.275C115.282 117.965 115.842 118.524 116.533 118.524L116.75 118.524Z" fill="url(#paint15_linear)"/>
<path d="M74.8543 117.275C74.8543 117.965 74.2944 118.524 73.6038 118.524L73.3869 118.524C72.6962 118.524 72.1364 117.965 72.1364 117.275L72.1364 117.058C72.1364 116.369 72.6962 115.81 73.3869 115.81L73.6038 115.81C74.2944 115.81 74.8543 116.369 74.8543 117.058L74.8543 117.275Z" fill="url(#paint16_linear)"/>
<path d="M30.4581 118.524C31.1487 118.524 31.7086 117.965 31.7086 117.275L31.7086 117.058C31.7086 116.369 31.1487 115.81 30.4581 115.81L30.2412 115.81C29.5505 115.81 28.9907 116.369 28.9907 117.058L28.9907 117.275C28.9907 117.965 29.5505 118.524 30.2412 118.524L30.4581 118.524Z" fill="url(#paint17_linear)"/>
<path d="M118 30.4181C118 31.1078 117.44 31.6669 116.75 31.6669L116.533 31.6669C115.842 31.6669 115.282 31.1078 115.282 30.4181L115.282 30.2014C115.282 29.5117 115.842 28.9526 116.533 28.9526L116.75 28.9526C117.44 28.9526 118 29.5117 118 30.2014L118 30.4181Z" fill="url(#paint18_linear)"/>
<path d="M73.6038 31.6669C74.2944 31.6669 74.8543 31.1078 74.8543 30.4181L74.8543 30.2014C74.8543 29.5117 74.2944 28.9526 73.6038 28.9526L73.3869 28.9526C72.6963 28.9526 72.1364 29.5117 72.1364 30.2014L72.1364 30.4181C72.1364 31.1078 72.6963 31.6669 73.3869 31.6669L73.6038 31.6669Z" fill="url(#paint19_linear)"/>
<path d="M31.7086 30.4181C31.7086 31.1078 31.1487 31.6669 30.4581 31.6669L30.2412 31.6669C29.5505 31.6669 28.9907 31.1078 28.9907 30.4181L28.9907 30.2014C28.9907 29.5117 29.5505 28.9526 30.2412 28.9526L30.4581 28.9526C31.1487 28.9526 31.7086 29.5117 31.7086 30.2014L31.7086 30.4181Z" fill="url(#paint20_linear)"/>
<path d="M116.75 89.5717C117.44 89.5717 118 89.0126 118 88.3229L118 88.1062C118 87.4165 117.44 86.8574 116.75 86.8574L116.533 86.8574C115.842 86.8574 115.282 87.4165 115.282 88.1062L115.282 88.3229C115.282 89.0126 115.842 89.5717 116.533 89.5717L116.75 89.5717Z" fill="url(#paint21_linear)"/>
<path d="M74.8543 88.3229C74.8543 89.0126 74.2944 89.5717 73.6038 89.5717L73.3869 89.5717C72.6963 89.5717 72.1364 89.0126 72.1364 88.3229L72.1364 88.1062C72.1364 87.4165 72.6963 86.8574 73.3869 86.8574L73.6038 86.8574C74.2944 86.8574 74.8543 87.4165 74.8543 88.1062L74.8543 88.3229Z" fill="url(#paint22_linear)"/>
<path d="M30.4581 89.5717C31.1487 89.5717 31.7086 89.0126 31.7086 88.3229L31.7086 88.1062C31.7086 87.4165 31.1487 86.8574 30.4581 86.8574L30.2412 86.8574C29.5505 86.8574 28.9907 87.4165 28.9907 88.1062L28.9907 88.3229C28.9907 89.0126 29.5505 89.5717 30.2412 89.5717L30.4581 89.5717Z" fill="url(#paint23_linear)"/>
<path d="M118 1.46547C118 2.15518 117.44 2.71429 116.75 2.71429L116.533 2.71429C115.842 2.71429 115.282 2.15518 115.282 1.46547L115.282 1.24884C115.282 0.559128 115.842 1.50701e-05 116.533 1.51305e-05L116.75 1.51495e-05C117.44 1.52098e-05 118 0.559128 118 1.24884L118 1.46547Z" fill="url(#paint24_linear)"/>
<path d="M73.6038 2.71429C74.2944 2.71429 74.8543 2.15518 74.8543 1.46547L74.8543 1.24884C74.8543 0.559124 74.2944 1.14379e-05 73.6038 1.13775e-05L73.3869 1.13586e-05C72.6963 1.12982e-05 72.1364 0.559124 72.1364 1.24884L72.1364 1.46547C72.1364 2.15518 72.6963 2.71429 73.3869 2.71429L73.6038 2.71429Z" fill="url(#paint25_linear)"/>
<path d="M31.7086 1.46546C31.7086 2.15517 31.1487 2.71429 30.4581 2.71429L30.2412 2.71429C29.5505 2.71429 28.9907 2.15517 28.9907 1.46546L28.9907 1.24883C28.9907 0.55912 29.5505 7.52629e-06 30.2412 7.58667e-06L30.4581 7.60563e-06C31.1487 7.66601e-06 31.7086 0.55912 31.7086 1.24883L31.7086 1.46546Z" fill="url(#paint26_linear)"/>
<path d="M116.75 60.6191C117.44 60.6191 118 60.06 118 59.3703L118 59.1536C118 58.4639 117.44 57.9048 116.75 57.9048L116.533 57.9048C115.842 57.9048 115.282 58.4639 115.282 59.1536L115.282 59.3703C115.282 60.06 115.842 60.6191 116.533 60.6191L116.75 60.6191Z" fill="url(#paint27_linear)"/>
<path d="M74.8543 59.3703C74.8543 60.06 74.2944 60.6191 73.6038 60.6191L73.3869 60.6191C72.6963 60.6191 72.1364 60.06 72.1364 59.3703L72.1364 59.1536C72.1364 58.4639 72.6963 57.9048 73.3869 57.9048L73.6038 57.9048C74.2944 57.9048 74.8543 58.4639 74.8543 59.1536L74.8543 59.3703Z" fill="url(#paint28_linear)"/>
<path d="M30.4581 60.6191C31.1487 60.6191 31.7086 60.06 31.7086 59.3703L31.7086 59.1536C31.7086 58.4639 31.1487 57.9048 30.4581 57.9048L30.2412 57.9048C29.5505 57.9048 28.9907 58.4639 28.9907 59.1536L28.9907 59.3703C28.9907 60.06 29.5505 60.6191 30.2412 60.6191L30.4581 60.6191Z" fill="url(#paint29_linear)"/>
<path d="M87.7588 133C88.4495 133 89.0093 132.441 89.0093 131.751L89.0093 131.535C89.0093 130.845 88.4495 130.286 87.7588 130.286L87.5419 130.286C86.8513 130.286 86.2914 130.845 86.2914 131.535L86.2914 131.751C86.2914 132.441 86.8513 133 87.5419 133L87.7588 133Z" fill="url(#paint30_linear)"/>
<path d="M45.8636 131.751C45.8636 132.441 45.3037 133 44.6131 133L44.3962 133C43.7056 133 43.1457 132.441 43.1457 131.751L43.1457 131.535C43.1457 130.845 43.7056 130.286 44.3962 130.286L44.6131 130.286C45.3037 130.286 45.8636 130.845 45.8636 131.535L45.8636 131.751Z" fill="url(#paint31_linear)"/>
<path d="M1.46739 133C2.15801 133 2.71787 132.441 2.71787 131.751L2.71787 131.535C2.71787 130.845 2.15801 130.286 1.46739 130.286L1.25047 130.286C0.559838 130.286 -1.50704e-05 130.845 -1.51307e-05 131.535L-1.51496e-05 131.751C-1.52099e-05 132.441 0.559837 133 1.25047 133L1.46739 133Z" fill="url(#paint32_linear)"/>
<path d="M89.0093 44.8942C89.0093 45.5839 88.4495 46.143 87.7588 46.143L87.5419 46.143C86.8513 46.143 86.2914 45.5839 86.2914 44.8942L86.2914 44.6775C86.2914 43.9878 86.8513 43.4287 87.5419 43.4287L87.7588 43.4287C88.4495 43.4287 89.0093 43.9878 89.0093 44.6775L89.0093 44.8942Z" fill="url(#paint33_linear)"/>
<path d="M44.6131 46.143C45.3037 46.143 45.8636 45.5839 45.8636 44.8942L45.8636 44.6775C45.8636 43.9878 45.3037 43.4287 44.6131 43.4287L44.3962 43.4287C43.7056 43.4287 43.1457 43.9878 43.1457 44.6775L43.1457 44.8942C43.1457 45.5839 43.7056 46.143 44.3962 46.143L44.6131 46.143Z" fill="url(#paint34_linear)"/>
<path d="M2.71788 44.8942C2.71788 45.5839 2.15802 46.143 1.4674 46.143L1.25047 46.143C0.559845 46.143 -7.61663e-06 45.5839 -7.55633e-06 44.8942L-7.53739e-06 44.6775C-7.4771e-06 43.9878 0.559845 43.4287 1.25047 43.4287L1.4674 43.4287C2.15802 43.4287 2.71788 43.9878 2.71788 44.6775L2.71788 44.8942Z" fill="url(#paint35_linear)"/>
<path d="M87.7588 104.047C88.4495 104.047 89.0093 103.488 89.0093 102.799L89.0093 102.582C89.0093 101.892 88.4495 101.333 87.7588 101.333L87.5419 101.333C86.8513 101.333 86.2914 101.892 86.2914 102.582L86.2914 102.799C86.2914 103.488 86.8513 104.047 87.5419 104.047L87.7588 104.047Z" fill="url(#paint36_linear)"/>
<path d="M45.8636 102.799C45.8636 103.488 45.3037 104.047 44.6131 104.047L44.3962 104.047C43.7056 104.047 43.1457 103.488 43.1457 102.799L43.1457 102.582C43.1457 101.892 43.7056 101.333 44.3962 101.333L44.6131 101.333C45.3037 101.333 45.8636 101.892 45.8636 102.582L45.8636 102.799Z" fill="url(#paint37_linear)"/>
<path d="M1.46739 104.047C2.15801 104.047 2.71788 103.488 2.71788 102.799L2.71788 102.582C2.71788 101.892 2.15802 101.333 1.46739 101.333L1.25047 101.333C0.55984 101.333 -1.25393e-05 101.892 -1.25996e-05 102.582L-1.26185e-05 102.799C-1.26788e-05 103.488 0.55984 104.047 1.25047 104.047L1.46739 104.047Z" fill="url(#paint38_linear)"/>
<path d="M89.0093 15.942C89.0093 16.6317 88.4495 17.1908 87.7588 17.1908L87.5419 17.1908C86.8513 17.1908 86.2914 16.6317 86.2914 15.942L86.2914 15.7253C86.2914 15.0356 86.8513 14.4765 87.5419 14.4765L87.7588 14.4765C88.4495 14.4765 89.0093 15.0356 89.0093 15.7253L89.0093 15.942Z" fill="url(#paint39_linear)"/>
<path d="M44.6131 17.1908C45.3037 17.1908 45.8636 16.6317 45.8636 15.942L45.8636 15.7253C45.8636 15.0356 45.3037 14.4765 44.6131 14.4765L44.3962 14.4765C43.7056 14.4765 43.1457 15.0356 43.1457 15.7253L43.1457 15.942C43.1457 16.6317 43.7056 17.1908 44.3962 17.1908L44.6131 17.1908Z" fill="url(#paint40_linear)"/>
<path d="M2.71788 15.942C2.71788 16.6317 2.15802 17.1908 1.4674 17.1908L1.25048 17.1908C0.559847 17.1908 -5.08555e-06 16.6317 -5.02525e-06 15.942L-5.00631e-06 15.7253C-4.94602e-06 15.0356 0.559848 14.4765 1.25048 14.4765L1.4674 14.4765C2.15802 14.4765 2.71788 15.0356 2.71788 15.7253L2.71788 15.942Z" fill="url(#paint41_linear)"/>
<path d="M87.7588 75.0952C88.4495 75.0952 89.0093 74.5361 89.0093 73.8464L89.0093 73.6297C89.0093 72.94 88.4495 72.3809 87.7588 72.3809L87.5419 72.3809C86.8513 72.3809 86.2914 72.94 86.2914 73.6297L86.2914 73.8464C86.2914 74.5361 86.8513 75.0952 87.5419 75.0952L87.7588 75.0952Z" fill="url(#paint42_linear)"/>
<path d="M45.8636 73.8464C45.8636 74.5361 45.3037 75.0952 44.6131 75.0952L44.3962 75.0952C43.7056 75.0952 43.1457 74.5361 43.1457 73.8464L43.1457 73.6297C43.1457 72.94 43.7056 72.3809 44.3962 72.3809L44.6131 72.3809C45.3037 72.3809 45.8636 72.94 45.8636 73.6297L45.8636 73.8464Z" fill="url(#paint43_linear)"/>
<path d="M1.4674 75.0952C2.15802 75.0952 2.71788 74.5361 2.71788 73.8464L2.71788 73.6297C2.71788 72.94 2.15802 72.3809 1.4674 72.3809L1.25047 72.3809C0.559843 72.3809 -1.00082e-05 72.94 -1.00685e-05 73.6297L-1.00874e-05 73.8464C-1.01477e-05 74.5361 0.559842 75.0952 1.25047 75.0952L1.4674 75.0952Z" fill="url(#paint44_linear)"/>
<path d="M87.7588 118.524C88.4495 118.524 89.0093 117.965 89.0093 117.275L89.0093 117.058C89.0093 116.369 88.4495 115.81 87.7588 115.81L87.5419 115.81C86.8513 115.81 86.2914 116.369 86.2914 117.058L86.2914 117.275C86.2914 117.965 86.8513 118.524 87.5419 118.524L87.7588 118.524Z" fill="url(#paint45_linear)"/>
<path d="M45.8636 117.275C45.8636 117.965 45.3037 118.524 44.6131 118.524L44.3962 118.524C43.7056 118.524 43.1457 117.965 43.1457 117.275L43.1457 117.058C43.1457 116.369 43.7056 115.81 44.3962 115.81L44.6131 115.81C45.3037 115.81 45.8636 116.369 45.8636 117.058L45.8636 117.275Z" fill="url(#paint46_linear)"/>
<path d="M1.46739 118.524C2.15801 118.524 2.71787 117.965 2.71787 117.275L2.71787 117.058C2.71787 116.369 2.15801 115.81 1.46739 115.81L1.25047 115.81C0.559839 115.81 -1.38048e-05 116.369 -1.38651e-05 117.058L-1.38841e-05 117.275C-1.39444e-05 117.965 0.559839 118.524 1.25047 118.524L1.46739 118.524Z" fill="url(#paint47_linear)"/>
<path d="M89.0093 30.4181C89.0093 31.1078 88.4495 31.6669 87.7588 31.6669L87.5419 31.6669C86.8513 31.6669 86.2914 31.1078 86.2914 30.4181L86.2914 30.2014C86.2914 29.5117 86.8513 28.9526 87.5419 28.9526L87.7588 28.9526C88.4495 28.9526 89.0093 29.5117 89.0093 30.2014L89.0093 30.4181Z" fill="url(#paint48_linear)"/>
<path d="M44.6131 31.6669C45.3037 31.6669 45.8636 31.1078 45.8636 30.4181L45.8636 30.2014C45.8636 29.5117 45.3037 28.9526 44.6131 28.9526L44.3962 28.9526C43.7056 28.9526 43.1457 29.5117 43.1457 30.2014L43.1457 30.4181C43.1457 31.1078 43.7056 31.6669 44.3962 31.6669L44.6131 31.6669Z" fill="url(#paint49_linear)"/>
<path d="M2.71788 30.4181C2.71788 31.1078 2.15802 31.6669 1.4674 31.6669L1.25047 31.6669C0.559846 31.6669 -6.35109e-06 31.1078 -6.29079e-06 30.4181L-6.27185e-06 30.2014C-6.21156e-06 29.5117 0.559846 28.9526 1.25047 28.9526L1.4674 28.9526C2.15802 28.9526 2.71788 29.5117 2.71788 30.2014L2.71788 30.4181Z" fill="url(#paint50_linear)"/>
<path d="M87.7588 89.5717C88.4495 89.5717 89.0093 89.0126 89.0093 88.3229L89.0093 88.1062C89.0093 87.4165 88.4495 86.8574 87.7588 86.8574L87.5419 86.8574C86.8513 86.8574 86.2914 87.4165 86.2914 88.1062L86.2914 88.3229C86.2914 89.0126 86.8513 89.5717 87.5419 89.5717L87.7588 89.5717Z" fill="url(#paint51_linear)"/>
<path d="M45.8636 88.3229C45.8636 89.0126 45.3037 89.5717 44.6131 89.5717L44.3962 89.5717C43.7056 89.5717 43.1457 89.0126 43.1457 88.3229L43.1457 88.1062C43.1457 87.4165 43.7056 86.8574 44.3962 86.8574L44.6131 86.8574C45.3037 86.8574 45.8636 87.4165 45.8636 88.1062L45.8636 88.3229Z" fill="url(#paint52_linear)"/>
<path d="M1.4674 89.5717C2.15802 89.5717 2.71788 89.0126 2.71788 88.3229L2.71788 88.1062C2.71788 87.4165 2.15802 86.8574 1.4674 86.8574L1.25047 86.8574C0.559841 86.8574 -1.12738e-05 87.4165 -1.13341e-05 88.1062L-1.1353e-05 88.3229C-1.14133e-05 89.0126 0.559841 89.5717 1.25047 89.5717L1.4674 89.5717Z" fill="url(#paint53_linear)"/>
<path d="M89.0093 1.46547C89.0093 2.15518 88.4495 2.71429 87.7588 2.71429L87.5419 2.71429C86.8513 2.71429 86.2914 2.15518 86.2914 1.46547L86.2914 1.24884C86.2914 0.559125 86.8513 1.25357e-05 87.5419 1.25961e-05L87.7588 1.2615e-05C88.4495 1.26754e-05 89.0093 0.559125 89.0093 1.24884L89.0093 1.46547Z" fill="url(#paint54_linear)"/>
<path d="M44.6131 2.71429C45.3037 2.71429 45.8636 2.15518 45.8636 1.46546L45.8636 1.24883C45.8636 0.559122 45.3037 8.90348e-06 44.6131 8.8431e-06L44.3962 8.82414e-06C43.7056 8.76376e-06 43.1457 0.559121 43.1457 1.24883L43.1457 1.46546C43.1457 2.15518 43.7056 2.71429 44.3962 2.71429L44.6131 2.71429Z" fill="url(#paint55_linear)"/>
<path d="M2.71788 1.46546C2.71788 2.15517 2.15802 2.71428 1.4674 2.71428L1.25048 2.71428C0.559849 2.71428 -3.81997e-06 2.15517 -3.75968e-06 1.46546L-3.74074e-06 1.24883C-3.68044e-06 0.559117 0.559849 4.99184e-06 1.25048 5.05222e-06L1.4674 5.07118e-06C2.15802 5.13156e-06 2.71788 0.559118 2.71788 1.24883L2.71788 1.46546Z" fill="url(#paint56_linear)"/>
<path d="M87.7588 60.6191C88.4495 60.6191 89.0093 60.06 89.0093 59.3703L89.0093 59.1536C89.0093 58.4639 88.4495 57.9048 87.7588 57.9048L87.5419 57.9048C86.8513 57.9048 86.2914 58.4639 86.2914 59.1536L86.2914 59.3703C86.2914 60.06 86.8513 60.6191 87.5419 60.6191L87.7588 60.6191Z" fill="url(#paint57_linear)"/>
<path d="M45.8636 59.3703C45.8636 60.06 45.3037 60.6191 44.6131 60.6191L44.3962 60.6191C43.7056 60.6191 43.1457 60.06 43.1457 59.3703L43.1457 59.1536C43.1457 58.4639 43.7056 57.9048 44.3962 57.9048L44.6131 57.9048C45.3037 57.9048 45.8636 58.4639 45.8636 59.1536L45.8636 59.3703Z" fill="url(#paint58_linear)"/>
<path d="M1.4674 60.6191C2.15802 60.6191 2.71788 60.06 2.71788 59.3703L2.71788 59.1536C2.71788 58.4639 2.15802 57.9048 1.4674 57.9048L1.25047 57.9048C0.559844 57.9048 -8.74264e-06 58.4639 -8.80294e-06 59.1536L-8.82187e-06 59.3703C-8.88217e-06 60.06 0.559844 60.6191 1.25047 60.6191L1.4674 60.6191Z" fill="url(#paint59_linear)"/>
<path d="M102.254 133C102.945 133 103.504 132.441 103.504 131.751L103.504 131.535C103.504 130.845 102.945 130.286 102.254 130.286L102.037 130.286C101.346 130.286 100.787 130.845 100.787 131.535L100.787 131.751C100.787 132.441 101.346 133 102.037 133L102.254 133Z" fill="url(#paint60_linear)"/>
<path d="M60.3587 131.751C60.3587 132.441 59.7989 133 59.1082 133L58.8913 133C58.2007 133 57.6408 132.441 57.6408 131.751L57.6408 131.535C57.6408 130.845 58.2007 130.286 58.8913 130.286L59.1082 130.286C59.7989 130.286 60.3587 130.845 60.3587 131.535L60.3587 131.751Z" fill="url(#paint61_linear)"/>
<path d="M15.9625 133C16.6532 133 17.213 132.441 17.213 131.751L17.213 131.535C17.213 130.845 16.6532 130.286 15.9625 130.286L15.7456 130.286C15.055 130.286 14.4951 130.845 14.4951 131.535L14.4951 131.751C14.4951 132.441 15.055 133 15.7456 133L15.9625 133Z" fill="url(#paint62_linear)"/>
<path d="M103.504 44.8942C103.504 45.5839 102.945 46.143 102.254 46.143L102.037 46.143C101.346 46.143 100.787 45.5839 100.787 44.8942L100.787 44.6775C100.787 43.9878 101.346 43.4287 102.037 43.4287L102.254 43.4287C102.945 43.4287 103.504 43.9878 103.504 44.6775L103.504 44.8942Z" fill="url(#paint63_linear)"/>
<path d="M59.1083 46.143C59.7989 46.143 60.3587 45.5839 60.3587 44.8942L60.3587 44.6775C60.3587 43.9878 59.7989 43.4287 59.1083 43.4287L58.8913 43.4287C58.2007 43.4287 57.6409 43.9878 57.6409 44.6775L57.6409 44.8942C57.6409 45.5839 58.2007 46.143 58.8913 46.143L59.1083 46.143Z" fill="url(#paint64_linear)"/>
<path d="M17.213 44.8942C17.213 45.5839 16.6532 46.143 15.9625 46.143L15.7456 46.143C15.055 46.143 14.4951 45.5839 14.4951 44.8942L14.4951 44.6775C14.4951 43.9878 15.055 43.4287 15.7456 43.4287L15.9625 43.4287C16.6532 43.4287 17.213 43.9878 17.213 44.6775L17.213 44.8942Z" fill="url(#paint65_linear)"/>
<path d="M102.254 104.047C102.945 104.047 103.504 103.488 103.504 102.799L103.504 102.582C103.504 101.892 102.945 101.333 102.254 101.333L102.037 101.333C101.346 101.333 100.787 101.892 100.787 102.582L100.787 102.799C100.787 103.488 101.346 104.047 102.037 104.047L102.254 104.047Z" fill="url(#paint66_linear)"/>
<path d="M60.3587 102.799C60.3587 103.488 59.7989 104.047 59.1083 104.047L58.8913 104.047C58.2007 104.047 57.6408 103.488 57.6408 102.799L57.6408 102.582C57.6408 101.892 58.2007 101.333 58.8913 101.333L59.1083 101.333C59.7989 101.333 60.3587 101.892 60.3587 102.582L60.3587 102.799Z" fill="url(#paint67_linear)"/>
<path d="M15.9625 104.047C16.6532 104.047 17.213 103.488 17.213 102.799L17.213 102.582C17.213 101.892 16.6532 101.333 15.9625 101.333L15.7456 101.333C15.055 101.333 14.4951 101.892 14.4951 102.582L14.4951 102.799C14.4951 103.488 15.055 104.047 15.7456 104.047L15.9625 104.047Z" fill="url(#paint68_linear)"/>
<path d="M103.504 15.942C103.504 16.6317 102.945 17.1908 102.254 17.1908L102.037 17.1908C101.346 17.1908 100.787 16.6317 100.787 15.942L100.787 15.7253C100.787 15.0356 101.346 14.4765 102.037 14.4765L102.254 14.4765C102.945 14.4765 103.504 15.0356 103.504 15.7253L103.504 15.942Z" fill="url(#paint69_linear)"/>
<path d="M59.1083 17.1908C59.7989 17.1908 60.3587 16.6317 60.3587 15.942L60.3587 15.7253C60.3587 15.0356 59.7989 14.4765 59.1083 14.4765L58.8913 14.4765C58.2007 14.4765 57.6409 15.0356 57.6409 15.7253L57.6409 15.942C57.6409 16.6317 58.2007 17.1908 58.8913 17.1908L59.1083 17.1908Z" fill="url(#paint70_linear)"/>
<path d="M17.213 15.942C17.213 16.6317 16.6532 17.1908 15.9625 17.1908L15.7456 17.1908C15.055 17.1908 14.4951 16.6317 14.4951 15.942L14.4951 15.7253C14.4951 15.0356 15.055 14.4765 15.7456 14.4765L15.9625 14.4765C16.6532 14.4765 17.213 15.0356 17.213 15.7253L17.213 15.942Z" fill="url(#paint71_linear)"/>
<path d="M102.254 75.0952C102.945 75.0952 103.504 74.5361 103.504 73.8464L103.504 73.6297C103.504 72.94 102.945 72.3809 102.254 72.3809L102.037 72.3809C101.346 72.3809 100.787 72.94 100.787 73.6297L100.787 73.8464C100.787 74.5361 101.346 75.0952 102.037 75.0952L102.254 75.0952Z" fill="url(#paint72_linear)"/>
<path d="M60.3587 73.8464C60.3587 74.5361 59.7989 75.0952 59.1083 75.0952L58.8913 75.0952C58.2007 75.0952 57.6408 74.5361 57.6408 73.8464L57.6408 73.6297C57.6408 72.94 58.2007 72.3809 58.8913 72.3809L59.1083 72.3809C59.7989 72.3809 60.3587 72.94 60.3587 73.6297L60.3587 73.8464Z" fill="url(#paint73_linear)"/>
<path d="M15.9625 75.0952C16.6532 75.0952 17.213 74.5361 17.213 73.8464L17.213 73.6297C17.213 72.94 16.6532 72.3809 15.9625 72.3809L15.7456 72.3809C15.055 72.3809 14.4951 72.94 14.4951 73.6297L14.4951 73.8464C14.4951 74.5361 15.055 75.0952 15.7456 75.0952L15.9625 75.0952Z" fill="url(#paint74_linear)"/>
<path d="M102.254 118.524C102.945 118.524 103.504 117.965 103.504 117.275L103.504 117.058C103.504 116.369 102.945 115.81 102.254 115.81L102.037 115.81C101.346 115.81 100.787 116.369 100.787 117.058L100.787 117.275C100.787 117.965 101.346 118.524 102.037 118.524L102.254 118.524Z" fill="url(#paint75_linear)"/>
<path d="M60.3587 117.275C60.3587 117.965 59.7989 118.524 59.1083 118.524L58.8913 118.524C58.2007 118.524 57.6408 117.965 57.6408 117.275L57.6408 117.058C57.6408 116.369 58.2007 115.81 58.8913 115.81L59.1083 115.81C59.7989 115.81 60.3587 116.369 60.3587 117.058L60.3587 117.275Z" fill="url(#paint76_linear)"/>
<path d="M15.9625 118.524C16.6532 118.524 17.213 117.965 17.213 117.275L17.213 117.058C17.213 116.369 16.6532 115.81 15.9625 115.81L15.7456 115.81C15.055 115.81 14.4951 116.369 14.4951 117.058L14.4951 117.275C14.4951 117.965 15.055 118.524 15.7456 118.524L15.9625 118.524Z" fill="url(#paint77_linear)"/>
<path d="M103.504 30.4181C103.504 31.1078 102.945 31.6669 102.254 31.6669L102.037 31.6669C101.346 31.6669 100.787 31.1078 100.787 30.4181L100.787 30.2014C100.787 29.5117 101.346 28.9526 102.037 28.9526L102.254 28.9526C102.945 28.9526 103.504 29.5117 103.504 30.2014L103.504 30.4181Z" fill="url(#paint78_linear)"/>
<path d="M59.1083 31.6669C59.7989 31.6669 60.3587 31.1078 60.3587 30.4181L60.3587 30.2014C60.3587 29.5117 59.7989 28.9526 59.1083 28.9526L58.8913 28.9526C58.2007 28.9526 57.6409 29.5117 57.6409 30.2014L57.6409 30.4181C57.6409 31.1078 58.2007 31.6669 58.8913 31.6669L59.1083 31.6669Z" fill="url(#paint79_linear)"/>
<path d="M17.213 30.4181C17.213 31.1078 16.6532 31.6669 15.9625 31.6669L15.7456 31.6669C15.055 31.6669 14.4951 31.1078 14.4951 30.4181L14.4951 30.2014C14.4951 29.5117 15.055 28.9526 15.7456 28.9526L15.9625 28.9526C16.6532 28.9526 17.213 29.5117 17.213 30.2014L17.213 30.4181Z" fill="url(#paint80_linear)"/>
<path d="M102.254 89.5717C102.945 89.5717 103.504 89.0126 103.504 88.3229L103.504 88.1062C103.504 87.4165 102.945 86.8574 102.254 86.8574L102.037 86.8574C101.346 86.8574 100.787 87.4165 100.787 88.1062L100.787 88.3229C100.787 89.0126 101.346 89.5717 102.037 89.5717L102.254 89.5717Z" fill="url(#paint81_linear)"/>
<path d="M60.3587 88.3229C60.3587 89.0126 59.7989 89.5717 59.1083 89.5717L58.8913 89.5717C58.2007 89.5717 57.6408 89.0126 57.6408 88.3229L57.6408 88.1062C57.6408 87.4165 58.2007 86.8574 58.8913 86.8574L59.1083 86.8574C59.7989 86.8574 60.3587 87.4165 60.3587 88.1062L60.3587 88.3229Z" fill="url(#paint82_linear)"/>
<path d="M15.9625 89.5717C16.6532 89.5717 17.213 89.0126 17.213 88.3229L17.213 88.1062C17.213 87.4165 16.6532 86.8574 15.9625 86.8574L15.7456 86.8574C15.055 86.8574 14.4951 87.4165 14.4951 88.1062L14.4951 88.3229C14.4951 89.0126 15.055 89.5717 15.7456 89.5717L15.9625 89.5717Z" fill="url(#paint83_linear)"/>
<path d="M103.504 1.46547C103.504 2.15518 102.945 2.71429 102.254 2.71429L102.037 2.71429C101.346 2.71429 100.787 2.15518 100.787 1.46547L100.787 1.24884C100.787 0.559126 101.346 1.38029e-05 102.037 1.38633e-05L102.254 1.38822e-05C102.945 1.39426e-05 103.504 0.559127 103.504 1.24884L103.504 1.46547Z" fill="url(#paint84_linear)"/>
<path d="M59.1083 2.71429C59.7989 2.71429 60.3587 2.15518 60.3587 1.46546L60.3587 1.24884C60.3587 0.559123 59.7989 1.01707e-05 59.1083 1.01103e-05L58.8913 1.00913e-05C58.2007 1.0031e-05 57.6409 0.559123 57.6409 1.24884L57.6409 1.46546C57.6409 2.15518 58.2007 2.71429 58.8913 2.71429L59.1083 2.71429Z" fill="url(#paint85_linear)"/>
<path d="M17.213 1.46546C17.213 2.15517 16.6532 2.71429 15.9625 2.71429L15.7456 2.71429C15.055 2.71429 14.4951 2.15517 14.4951 1.46546L14.4951 1.24883C14.4951 0.559119 15.055 6.25905e-06 15.7456 6.31943e-06L15.9625 6.33839e-06C16.6532 6.39877e-06 17.213 0.559119 17.213 1.24883L17.213 1.46546Z" fill="url(#paint86_linear)"/>
<path d="M102.254 60.6191C102.945 60.6191 103.504 60.06 103.504 59.3703L103.504 59.1536C103.504 58.4639 102.945 57.9048 102.254 57.9048L102.037 57.9048C101.346 57.9048 100.787 58.4639 100.787 59.1536L100.787 59.3703C100.787 60.06 101.346 60.6191 102.037 60.6191L102.254 60.6191Z" fill="url(#paint87_linear)"/>
<path d="M60.3587 59.3703C60.3587 60.06 59.7989 60.6191 59.1083 60.6191L58.8913 60.6191C58.2007 60.6191 57.6408 60.06 57.6408 59.3703L57.6408 59.1536C57.6408 58.4639 58.2007 57.9048 58.8913 57.9048L59.1083 57.9048C59.7989 57.9048 60.3587 58.4639 60.3587 59.1536L60.3587 59.3703Z" fill="url(#paint88_linear)"/>
<path d="M15.9625 60.6191C16.6532 60.6191 17.213 60.06 17.213 59.3703L17.213 59.1536C17.213 58.4639 16.6532 57.9048 15.9625 57.9048L15.7456 57.9048C15.055 57.9048 14.4951 58.4639 14.4951 59.1536L14.4951 59.3703C14.4951 60.06 15.055 60.6191 15.7456 60.6191L15.9625 60.6191Z" fill="url(#paint89_linear)"/>
<defs>
<linearGradient id="paint0_linear" x1="-83.6261" y1="148.858" x2="83.2748" y2="24.084" gradientUnits="userSpaceOnUse">
<stop stop-color="white"/>
<stop offset="1" stop-color="#404545" stop-opacity="0.51"/>
</linearGradient>
<linearGradient id="paint1_linear" x1="-83.6261" y1="148.858" x2="83.2748" y2="24.084" gradientUnits="userSpaceOnUse">
<stop stop-color="white"/>
<stop offset="1" stop-color="#404545" stop-opacity="0.51"/>
</linearGradient>
<linearGradient id="paint2_linear" x1="-83.6261" y1="148.858" x2="83.2748" y2="24.084" gradientUnits="userSpaceOnUse">
<stop stop-color="white"/>
<stop offset="1" stop-color="#404545" stop-opacity="0.51"/>
</linearGradient>
<linearGradient id="paint3_linear" x1="-83.6261" y1="148.858" x2="83.2748" y2="24.084" gradientUnits="userSpaceOnUse">
<stop stop-color="white"/>
<stop offset="1" stop-color="#404545" stop-opacity="0.51"/>
</linearGradient>
<linearGradient id="paint4_linear" x1="-83.6261" y1="148.858" x2="83.2748" y2="24.084" gradientUnits="userSpaceOnUse">
<stop stop-color="white"/>
<stop offset="1" stop-color="#404545" stop-opacity="0.51"/>
</linearGradient>
<linearGradient id="paint5_linear" x1="-83.6261" y1="148.858" x2="83.2748" y2="24.084" gradientUnits="userSpaceOnUse">
<stop stop-color="white"/>
<stop offset="1" stop-color="#404545" stop-opacity="0.51"/>
</linearGradient>
<linearGradient id="paint6_linear" x1="-83.6261" y1="148.858" x2="83.2748" y2="24.084" gradientUnits="userSpaceOnUse">
<stop stop-color="white"/>
<stop offset="1" stop-color="#404545" stop-opacity="0.51"/>
</linearGradient>
<linearGradient id="paint7_linear" x1="-83.6261" y1="148.858" x2="83.2748" y2="24.084" gradientUnits="userSpaceOnUse">
<stop stop-color="white"/>
<stop offset="1" stop-color="#404545" stop-opacity="0.51"/>
</linearGradient>
<linearGradient id="paint8_linear" x1="-83.6261" y1="148.858" x2="83.2748" y2="24.084" gradientUnits="userSpaceOnUse">
<stop stop-color="white"/>
<stop offset="1" stop-color="#404545" stop-opacity="0.51"/>
</linearGradient>
<linearGradient id="paint9_linear" x1="-83.6261" y1="148.858" x2="83.2748" y2="24.084" gradientUnits="userSpaceOnUse">
<stop stop-color="white"/>
<stop offset="1" stop-color="#404545" stop-opacity="0.51"/>
</linearGradient>
<linearGradient id="paint10_linear" x1="-83.6261" y1="148.858" x2="83.2748" y2="24.084" gradientUnits="userSpaceOnUse">
<stop stop-color="white"/>
<stop offset="1" stop-color="#404545" stop-opacity="0.51"/>
</linearGradient>
<linearGradient id="paint11_linear" x1="-83.6261" y1="148.858" x2="83.2748" y2="24.084" gradientUnits="userSpaceOnUse">
<stop stop-color="white"/>
<stop offset="1" stop-color="#404545" stop-opacity="0.51"/>
</linearGradient>
<linearGradient id="paint12_linear" x1="-83.6261" y1="148.858" x2="83.2748" y2="24.084" gradientUnits="userSpaceOnUse">
<stop stop-color="white"/>
<stop offset="1" stop-color="#404545" stop-opacity="0.51"/>
</linearGradient>
<linearGradient id="paint13_linear" x1="-83.6261" y1="148.858" x2="83.2748" y2="24.084" gradientUnits="userSpaceOnUse">
<stop stop-color="white"/>
<stop offset="1" stop-color="#404545" stop-opacity="0.51"/>
</linearGradient>
<linearGradient id="paint14_linear" x1="-83.6261" y1="148.858" x2="83.2748" y2="24.084" gradientUnits="userSpaceOnUse">
<stop stop-color="white"/>
<stop offset="1" stop-color="#404545" stop-opacity="0.51"/>
</linearGradient>
<linearGradient id="paint15_linear" x1="-83.6261" y1="148.858" x2="83.2748" y2="24.084" gradientUnits="userSpaceOnUse">
<stop stop-color="white"/>
<stop offset="1" stop-color="#404545" stop-opacity="0.51"/>
</linearGradient>
<linearGradient id="paint16_linear" x1="-83.6261" y1="148.858" x2="83.2748" y2="24.084" gradientUnits="userSpaceOnUse">
<stop stop-color="white"/>
<stop offset="1" stop-color="#404545" stop-opacity="0.51"/>
</linearGradient>
<linearGradient id="paint17_linear" x1="-83.6261" y1="148.858" x2="83.2748" y2="24.084" gradientUnits="userSpaceOnUse">
<stop stop-color="white"/>
<stop offset="1" stop-color="#404545" stop-opacity="0.51"/>
</linearGradient>
<linearGradient id="paint18_linear" x1="-83.6261" y1="148.858" x2="83.2748" y2="24.084" gradientUnits="userSpaceOnUse">
<stop stop-color="white"/>
<stop offset="1" stop-color="#404545" stop-opacity="0.51"/>
</linearGradient>
<linearGradient id="paint19_linear" x1="-83.6261" y1="148.858" x2="83.2748" y2="24.084" gradientUnits="userSpaceOnUse">
<stop stop-color="white"/>
<stop offset="1" stop-color="#404545" stop-opacity="0.51"/>
</linearGradient>
<linearGradient id="paint20_linear" x1="-83.6261" y1="148.858" x2="83.2748" y2="24.084" gradientUnits="userSpaceOnUse">
<stop stop-color="white"/>
<stop offset="1" stop-color="#404545" stop-opacity="0.51"/>
</linearGradient>
<linearGradient id="paint21_linear" x1="-83.6261" y1="148.858" x2="83.2748" y2="24.084" gradientUnits="userSpaceOnUse">
<stop stop-color="white"/>
<stop offset="1" stop-color="#404545" stop-opacity="0.51"/>
</linearGradient>
<linearGradient id="paint22_linear" x1="-83.6261" y1="148.858" x2="83.2748" y2="24.084" gradientUnits="userSpaceOnUse">
<stop stop-color="white"/>
<stop offset="1" stop-color="#404545" stop-opacity="0.51"/>
</linearGradient>
<linearGradient id="paint23_linear" x1="-83.6261" y1="148.858" x2="83.2748" y2="24.084" gradientUnits="userSpaceOnUse">
<stop stop-color="white"/>
<stop offset="1" stop-color="#404545" stop-opacity="0.51"/>
</linearGradient>
<linearGradient id="paint24_linear" x1="-83.6261" y1="148.858" x2="83.2748" y2="24.084" gradientUnits="userSpaceOnUse">
<stop stop-color="white"/>
<stop offset="1" stop-color="#404545" stop-opacity="0.51"/>
</linearGradient>
<linearGradient id="paint25_linear" x1="-83.6261" y1="148.858" x2="83.2748" y2="24.084" gradientUnits="userSpaceOnUse">
<stop stop-color="white"/>
<stop offset="1" stop-color="#404545" stop-opacity="0.51"/>
</linearGradient>
<linearGradient id="paint26_linear" x1="-83.6261" y1="148.858" x2="83.2748" y2="24.084" gradientUnits="userSpaceOnUse">
<stop stop-color="white"/>
<stop offset="1" stop-color="#404545" stop-opacity="0.51"/>
</linearGradient>
<linearGradient id="paint27_linear" x1="-83.6261" y1="148.858" x2="83.2748" y2="24.084" gradientUnits="userSpaceOnUse">
<stop stop-color="white"/>
<stop offset="1" stop-color="#404545" stop-opacity="0.51"/>
</linearGradient>
<linearGradient id="paint28_linear" x1="-83.6261" y1="148.858" x2="83.2748" y2="24.084" gradientUnits="userSpaceOnUse">
<stop stop-color="white"/>
<stop offset="1" stop-color="#404545" stop-opacity="0.51"/>
</linearGradient>
<linearGradient id="paint29_linear" x1="-83.6261" y1="148.858" x2="83.2748" y2="24.084" gradientUnits="userSpaceOnUse">
<stop stop-color="white"/>
<stop offset="1" stop-color="#404545" stop-opacity="0.51"/>
</linearGradient>
<linearGradient id="paint30_linear" x1="-83.6261" y1="148.858" x2="83.2748" y2="24.084" gradientUnits="userSpaceOnUse">
<stop stop-color="white"/>
<stop offset="1" stop-color="#404545" stop-opacity="0.51"/>
</linearGradient>
<linearGradient id="paint31_linear" x1="-83.6261" y1="148.858" x2="83.2748" y2="24.084" gradientUnits="userSpaceOnUse">
<stop stop-color="white"/>
<stop offset="1" stop-color="#404545" stop-opacity="0.51"/>
</linearGradient>
<linearGradient id="paint32_linear" x1="-83.6261" y1="148.858" x2="83.2748" y2="24.084" gradientUnits="userSpaceOnUse">
<stop stop-color="white"/>
<stop offset="1" stop-color="#404545" stop-opacity="0.51"/>
</linearGradient>
<linearGradient id="paint33_linear" x1="-83.6261" y1="148.858" x2="83.2748" y2="24.084" gradientUnits="userSpaceOnUse">
<stop stop-color="white"/>
<stop offset="1" stop-color="#404545" stop-opacity="0.51"/>
</linearGradient>
<linearGradient id="paint34_linear" x1="-83.6261" y1="148.858" x2="83.2748" y2="24.084" gradientUnits="userSpaceOnUse">
<stop stop-color="white"/>
<stop offset="1" stop-color="#404545" stop-opacity="0.51"/>
</linearGradient>
<linearGradient id="paint35_linear" x1="-83.6261" y1="148.858" x2="83.2748" y2="24.084" gradientUnits="userSpaceOnUse">
<stop stop-color="white"/>
<stop offset="1" stop-color="#404545" stop-opacity="0.51"/>
</linearGradient>
<linearGradient id="paint36_linear" x1="-83.6261" y1="148.858" x2="83.2748" y2="24.084" gradientUnits="userSpaceOnUse">
<stop stop-color="white"/>
<stop offset="1" stop-color="#404545" stop-opacity="0.51"/>
</linearGradient>
<linearGradient id="paint37_linear" x1="-83.6261" y1="148.858" x2="83.2748" y2="24.084" gradientUnits="userSpaceOnUse">
<stop stop-color="white"/>
<stop offset="1" stop-color="#404545" stop-opacity="0.51"/>
</linearGradient>
<linearGradient id="paint38_linear" x1="-83.6261" y1="148.858" x2="83.2748" y2="24.084" gradientUnits="userSpaceOnUse">
<stop stop-color="white"/>
<stop offset="1" stop-color="#404545" stop-opacity="0.51"/>
</linearGradient>
<linearGradient id="paint39_linear" x1="-83.6261" y1="148.858" x2="83.2748" y2="24.084" gradientUnits="userSpaceOnUse">
<stop stop-color="white"/>
<stop offset="1" stop-color="#404545" stop-opacity="0.51"/>
</linearGradient>
<linearGradient id="paint40_linear" x1="-83.6261" y1="148.858" x2="83.2748" y2="24.084" gradientUnits="userSpaceOnUse">
<stop stop-color="white"/>
<stop offset="1" stop-color="#404545" stop-opacity="0.51"/>
</linearGradient>
<linearGradient id="paint41_linear" x1="-83.6261" y1="148.858" x2="83.2748" y2="24.084" gradientUnits="userSpaceOnUse">
<stop stop-color="white"/>
<stop offset="1" stop-color="#404545" stop-opacity="0.51"/>
</linearGradient>
<linearGradient id="paint42_linear" x1="-83.6261" y1="148.858" x2="83.2748" y2="24.084" gradientUnits="userSpaceOnUse">
<stop stop-color="white"/>
<stop offset="1" stop-color="#404545" stop-opacity="0.51"/>
</linearGradient>
<linearGradient id="paint43_linear" x1="-83.6261" y1="148.858" x2="83.2748" y2="24.084" gradientUnits="userSpaceOnUse">
<stop stop-color="white"/>
<stop offset="1" stop-color="#404545" stop-opacity="0.51"/>
</linearGradient>
<linearGradient id="paint44_linear" x1="-83.6261" y1="148.858" x2="83.2748" y2="24.084" gradientUnits="userSpaceOnUse">
<stop stop-color="white"/>
<stop offset="1" stop-color="#404545" stop-opacity="0.51"/>
</linearGradient>
<linearGradient id="paint45_linear" x1="-83.6261" y1="148.858" x2="83.2748" y2="24.084" gradientUnits="userSpaceOnUse">
<stop stop-color="white"/>
<stop offset="1" stop-color="#404545" stop-opacity="0.51"/>
</linearGradient>
<linearGradient id="paint46_linear" x1="-83.6261" y1="148.858" x2="83.2748" y2="24.084" gradientUnits="userSpaceOnUse">
<stop stop-color="white"/>
<stop offset="1" stop-color="#404545" stop-opacity="0.51"/>
</linearGradient>
<linearGradient id="paint47_linear" x1="-83.6261" y1="148.858" x2="83.2748" y2="24.084" gradientUnits="userSpaceOnUse">
<stop stop-color="white"/>
<stop offset="1" stop-color="#404545" stop-opacity="0.51"/>
</linearGradient>
<linearGradient id="paint48_linear" x1="-83.6261" y1="148.858" x2="83.2748" y2="24.084" gradientUnits="userSpaceOnUse">
<stop stop-color="white"/>
<stop offset="1" stop-color="#404545" stop-opacity="0.51"/>
</linearGradient>
<linearGradient id="paint49_linear" x1="-83.6261" y1="148.858" x2="83.2748" y2="24.084" gradientUnits="userSpaceOnUse">
<stop stop-color="white"/>
<stop offset="1" stop-color="#404545" stop-opacity="0.51"/>
</linearGradient>
<linearGradient id="paint50_linear" x1="-83.6261" y1="148.858" x2="83.2748" y2="24.084" gradientUnits="userSpaceOnUse">
<stop stop-color="white"/>
<stop offset="1" stop-color="#404545" stop-opacity="0.51"/>
</linearGradient>
<linearGradient id="paint51_linear" x1="-83.6261" y1="148.858" x2="83.2748" y2="24.084" gradientUnits="userSpaceOnUse">
<stop stop-color="white"/>
<stop offset="1" stop-color="#404545" stop-opacity="0.51"/>
</linearGradient>
<linearGradient id="paint52_linear" x1="-83.6261" y1="148.858" x2="83.2748" y2="24.084" gradientUnits="userSpaceOnUse">
<stop stop-color="white"/>
<stop offset="1" stop-color="#404545" stop-opacity="0.51"/>
</linearGradient>
<linearGradient id="paint53_linear" x1="-83.6261" y1="148.858" x2="83.2748" y2="24.084" gradientUnits="userSpaceOnUse">
<stop stop-color="white"/>
<stop offset="1" stop-color="#404545" stop-opacity="0.51"/>
</linearGradient>
<linearGradient id="paint54_linear" x1="-83.6261" y1="148.858" x2="83.2748" y2="24.084" gradientUnits="userSpaceOnUse">
<stop stop-color="white"/>
<stop offset="1" stop-color="#404545" stop-opacity="0.51"/>
</linearGradient>
<linearGradient id="paint55_linear" x1="-83.6261" y1="148.858" x2="83.2748" y2="24.084" gradientUnits="userSpaceOnUse">
<stop stop-color="white"/>
<stop offset="1" stop-color="#404545" stop-opacity="0.51"/>
</linearGradient>
<linearGradient id="paint56_linear" x1="-83.6261" y1="148.858" x2="83.2748" y2="24.084" gradientUnits="userSpaceOnUse">
<stop stop-color="white"/>
<stop offset="1" stop-color="#404545" stop-opacity="0.51"/>
</linearGradient>
<linearGradient id="paint57_linear" x1="-83.6261" y1="148.858" x2="83.2748" y2="24.084" gradientUnits="userSpaceOnUse">
<stop stop-color="white"/>
<stop offset="1" stop-color="#404545" stop-opacity="0.51"/>
</linearGradient>
<linearGradient id="paint58_linear" x1="-83.6261" y1="148.858" x2="83.2748" y2="24.084" gradientUnits="userSpaceOnUse">
<stop stop-color="white"/>
<stop offset="1" stop-color="#404545" stop-opacity="0.51"/>
</linearGradient>
<linearGradient id="paint59_linear" x1="-83.6261" y1="148.858" x2="83.2748" y2="24.084" gradientUnits="userSpaceOnUse">
<stop stop-color="white"/>
<stop offset="1" stop-color="#404545" stop-opacity="0.51"/>
</linearGradient>
<linearGradient id="paint60_linear" x1="-83.6261" y1="148.858" x2="83.2748" y2="24.084" gradientUnits="userSpaceOnUse">
<stop stop-color="white"/>
<stop offset="1" stop-color="#404545" stop-opacity="0.51"/>
</linearGradient>
<linearGradient id="paint61_linear" x1="-83.6261" y1="148.858" x2="83.2748" y2="24.084" gradientUnits="userSpaceOnUse">
<stop stop-color="white"/>
<stop offset="1" stop-color="#404545" stop-opacity="0.51"/>
</linearGradient>
<linearGradient id="paint62_linear" x1="-83.6261" y1="148.858" x2="83.2748" y2="24.084" gradientUnits="userSpaceOnUse">
<stop stop-color="white"/>
<stop offset="1" stop-color="#404545" stop-opacity="0.51"/>
</linearGradient>
<linearGradient id="paint63_linear" x1="-83.6261" y1="148.858" x2="83.2748" y2="24.084" gradientUnits="userSpaceOnUse">
<stop stop-color="white"/>
<stop offset="1" stop-color="#404545" stop-opacity="0.51"/>
</linearGradient>
<linearGradient id="paint64_linear" x1="-83.6261" y1="148.858" x2="83.2748" y2="24.084" gradientUnits="userSpaceOnUse">
<stop stop-color="white"/>
<stop offset="1" stop-color="#404545" stop-opacity="0.51"/>
</linearGradient>
<linearGradient id="paint65_linear" x1="-83.6261" y1="148.858" x2="83.2748" y2="24.084" gradientUnits="userSpaceOnUse">
<stop stop-color="white"/>
<stop offset="1" stop-color="#404545" stop-opacity="0.51"/>
</linearGradient>
<linearGradient id="paint66_linear" x1="-83.6261" y1="148.858" x2="83.2748" y2="24.084" gradientUnits="userSpaceOnUse">
<stop stop-color="white"/>
<stop offset="1" stop-color="#404545" stop-opacity="0.51"/>
</linearGradient>
<linearGradient id="paint67_linear" x1="-83.6261" y1="148.858" x2="83.2748" y2="24.084" gradientUnits="userSpaceOnUse">
<stop stop-color="white"/>
<stop offset="1" stop-color="#404545" stop-opacity="0.51"/>
</linearGradient>
<linearGradient id="paint68_linear" x1="-83.6261" y1="148.858" x2="83.2748" y2="24.084" gradientUnits="userSpaceOnUse">
<stop stop-color="white"/>
<stop offset="1" stop-color="#404545" stop-opacity="0.51"/>
</linearGradient>
<linearGradient id="paint69_linear" x1="-83.6261" y1="148.858" x2="83.2748" y2="24.084" gradientUnits="userSpaceOnUse">
<stop stop-color="white"/>
<stop offset="1" stop-color="#404545" stop-opacity="0.51"/>
</linearGradient>
<linearGradient id="paint70_linear" x1="-83.6261" y1="148.858" x2="83.2748" y2="24.084" gradientUnits="userSpaceOnUse">
<stop stop-color="white"/>
<stop offset="1" stop-color="#404545" stop-opacity="0.51"/>
</linearGradient>
<linearGradient id="paint71_linear" x1="-83.6261" y1="148.858" x2="83.2748" y2="24.084" gradientUnits="userSpaceOnUse">
<stop stop-color="white"/>
<stop offset="1" stop-color="#404545" stop-opacity="0.51"/>
</linearGradient>
<linearGradient id="paint72_linear" x1="-83.6261" y1="148.858" x2="83.2748" y2="24.084" gradientUnits="userSpaceOnUse">
<stop stop-color="white"/>
<stop offset="1" stop-color="#404545" stop-opacity="0.51"/>
</linearGradient>
<linearGradient id="paint73_linear" x1="-83.6261" y1="148.858" x2="83.2748" y2="24.084" gradientUnits="userSpaceOnUse">
<stop stop-color="white"/>
<stop offset="1" stop-color="#404545" stop-opacity="0.51"/>
</linearGradient>
<linearGradient id="paint74_linear" x1="-83.6261" y1="148.858" x2="83.2748" y2="24.084" gradientUnits="userSpaceOnUse">
<stop stop-color="white"/>
<stop offset="1" stop-color="#404545" stop-opacity="0.51"/>
</linearGradient>
<linearGradient id="paint75_linear" x1="-83.6261" y1="148.858" x2="83.2748" y2="24.084" gradientUnits="userSpaceOnUse">
<stop stop-color="white"/>
<stop offset="1" stop-color="#404545" stop-opacity="0.51"/>
</linearGradient>
<linearGradient id="paint76_linear" x1="-83.6261" y1="148.858" x2="83.2748" y2="24.084" gradientUnits="userSpaceOnUse">
<stop stop-color="white"/>
<stop offset="1" stop-color="#404545" stop-opacity="0.51"/>
</linearGradient>
<linearGradient id="paint77_linear" x1="-83.6261" y1="148.858" x2="83.2748" y2="24.084" gradientUnits="userSpaceOnUse">
<stop stop-color="white"/>
<stop offset="1" stop-color="#404545" stop-opacity="0.51"/>
</linearGradient>
<linearGradient id="paint78_linear" x1="-83.6261" y1="148.858" x2="83.2748" y2="24.084" gradientUnits="userSpaceOnUse">
<stop stop-color="white"/>
<stop offset="1" stop-color="#404545" stop-opacity="0.51"/>
</linearGradient>
<linearGradient id="paint79_linear" x1="-83.6261" y1="148.858" x2="83.2748" y2="24.084" gradientUnits="userSpaceOnUse">
<stop stop-color="white"/>
<stop offset="1" stop-color="#404545" stop-opacity="0.51"/>
</linearGradient>
<linearGradient id="paint80_linear" x1="-83.6261" y1="148.858" x2="83.2748" y2="24.084" gradientUnits="userSpaceOnUse">
<stop stop-color="white"/>
<stop offset="1" stop-color="#404545" stop-opacity="0.51"/>
</linearGradient>
<linearGradient id="paint81_linear" x1="-83.6261" y1="148.858" x2="83.2748" y2="24.084" gradientUnits="userSpaceOnUse">
<stop stop-color="white"/>
<stop offset="1" stop-color="#404545" stop-opacity="0.51"/>
</linearGradient>
<linearGradient id="paint82_linear" x1="-83.6261" y1="148.858" x2="83.2748" y2="24.084" gradientUnits="userSpaceOnUse">
<stop stop-color="white"/>
<stop offset="1" stop-color="#404545" stop-opacity="0.51"/>
</linearGradient>
<linearGradient id="paint83_linear" x1="-83.6261" y1="148.858" x2="83.2748" y2="24.084" gradientUnits="userSpaceOnUse">
<stop stop-color="white"/>
<stop offset="1" stop-color="#404545" stop-opacity="0.51"/>
</linearGradient>
<linearGradient id="paint84_linear" x1="-83.6261" y1="148.858" x2="83.2748" y2="24.084" gradientUnits="userSpaceOnUse">
<stop stop-color="white"/>
<stop offset="1" stop-color="#404545" stop-opacity="0.51"/>
</linearGradient>
<linearGradient id="paint85_linear" x1="-83.6261" y1="148.858" x2="83.2748" y2="24.084" gradientUnits="userSpaceOnUse">
<stop stop-color="white"/>
<stop offset="1" stop-color="#404545" stop-opacity="0.51"/>
</linearGradient>
<linearGradient id="paint86_linear" x1="-83.6261" y1="148.858" x2="83.2748" y2="24.084" gradientUnits="userSpaceOnUse">
<stop stop-color="white"/>
<stop offset="1" stop-color="#404545" stop-opacity="0.51"/>
</linearGradient>
<linearGradient id="paint87_linear" x1="-83.6261" y1="148.858" x2="83.2748" y2="24.084" gradientUnits="userSpaceOnUse">
<stop stop-color="white"/>
<stop offset="1" stop-color="#404545" stop-opacity="0.51"/>
</linearGradient>
<linearGradient id="paint88_linear" x1="-83.6261" y1="148.858" x2="83.2748" y2="24.084" gradientUnits="userSpaceOnUse">
<stop stop-color="white"/>
<stop offset="1" stop-color="#404545" stop-opacity="0.51"/>
</linearGradient>
<linearGradient id="paint89_linear" x1="-83.6261" y1="148.858" x2="83.2748" y2="24.084" gradientUnits="userSpaceOnUse">
<stop stop-color="white"/>
<stop offset="1" stop-color="#404545" stop-opacity="0.51"/>
</linearGradient>
</defs>
</svg>
